HIERARCHY
ROOT hip
{
  OFFSET 0.0 0.0 0.0
  CHANNELS 6 Xposition Yposition Zposition Zrotation Yrotation Xrotation
  JOINT torso
  {
    OFFSET 0.0 0.0 0.0
    CHANNELS 3 Zrotation Xrotation Yrotation
    JOINT neck
    {
      OFFSET -31.42098999999993 328.8025209999999 74.3554680000002
      CHANNELS 3 Zrotation Xrotation Yrotation
      JOINT head
      {
        OFFSET 3.3519900000001144 303.81732099999994 206.53942900000015
        CHANNELS 3 Zrotation Xrotation Yrotation
        End Site
        {
          OFFSET 0.0 0.0 0.0
        }
      }
    }
    JOINT left_collar
    {
      OFFSET -31.42098999999993 328.8025209999999 74.3554680000002
      CHANNELS 3 Zrotation Xrotation Yrotation
      JOINT left_upper_arm
      {
        OFFSET -124.490479 -8.162841999999841 8.226441000000023
        CHANNELS 3 Zrotation Xrotation Yrotation
        JOINT left_forearm
        {
          OFFSET -253.595764 -1.5758060000000569 105.0729980000001
          CHANNELS 3 Zrotation Xrotation Yrotation
          JOINT left_hand
          {
            OFFSET -269.48803699999996 0.1478270000000066 -55.346191999999974
            CHANNELS 3 Zrotation Xrotation Yrotation
            End Site
            {
              OFFSET 0.0 0.0 0.0
            }
          }
        }
      }
    }
    JOINT right_collar
    {
      OFFSET -31.42098999999993 328.8025209999999 74.3554680000002
      CHANNELS 3 Zrotation Xrotation Yrotation
      JOINT right_upper_arm
      {
        OFFSET 162.02484099999998 0.46441600000002836 2.2303470000001653
        CHANNELS 3 Zrotation Xrotation Yrotation
        JOINT right_forearm
        {
          OFFSET 240.01246700000004 -25.835875999999985 121.34179699999959
          CHANNELS 3 Zrotation Xrotation Yrotation
          JOINT right_hand
          {
            OFFSET 252.48539699999992 18.910399999999868 -67.53466800000001
            CHANNELS 3 Zrotation Xrotation Yrotation
            End Site
            {
              OFFSET 0.0 0.0 0.0
            }
          }
        }
      }
    }
  }
}
MOTION
Frames: 18
Frame Time: 0.01
-901.6973269999997 161.27857999999983 1415.7838130000002 10.093433259579774 -20.779482209637184 -6.361339100285731 0.9436954459113459 4.592131197421073 0.26611604400689937 -7.851415058129674 6.40537430496008 5.0270401605277035 0.0 0.0 0.0 10.629700733938648 -2.4618738861124205 19.85056237102351 4.934508705842422 6.272596655808902 -54.29972937933385 17.138985962343863 -1.4853687339894674 -13.424937962810109 0.0 0.0 0.0 1.0536959244175164 -0.09720732505483164 6.8415555757001645 -31.975845380948815 30.598112469497675 25.454618290138352 -48.86722990708262 -4.78797311083244 22.668040724645905 0.0 0.0 0.0
-901.6574099999998 161.30776999999983 1415.8172610000001 10.128324024340259 -20.703760003229757 -6.2253999274640055 0.8902158955247884 4.5025016548392545 0.2667371624488899 -7.827000493522285 6.371129583792208 5.012910210573522 0.0 0.0 0.0 10.578711804959886 -2.4337137050328197 19.710295150440633 4.944778769923226 6.277705652883922 -54.23922621499285 17.142705089851848 -1.4803938868136415 -13.459980095171165 0.0 0.0 0.0 0.9575874444891378 -0.08913605356545203 6.753222363967803 -31.894355245104727 30.551490785079668 25.49800586859043 -48.843413076276974 -4.7818511736896445 22.67994548599145 0.0 0.0 0.0
-901.6395259999998 161.76797499999984 1415.5782470000001 9.292213241776256 -20.96342097388333 -6.544249655634583 1.7216549569787232 4.915342184353858 0.15628454117128193 -7.9984539178978045 6.200689563464877 5.133578583849134 0.0 0.0 0.0 10.649975231535914 -2.5180401400134307 20.184932282597828 4.915531855455426 6.2468849114387694 -54.270274864113524 17.165009017006348 -1.4824423055214202 -13.459298977717534 0.0 0.0 0.0 0.9886036379849735 -0.09580879085683791 7.135117643758235 -31.874795032697705 30.56678953320229 25.55199480998481 -48.90967998878178 -4.819285153189434 22.592219366202677 0.0 0.0 0.0
-901.4731449999998 161.35687299999984 1415.9138180000002 10.031432475149058 -20.644380640977904 -6.528769351833388 1.0067113348012238 4.55391995276197 0.250235659208279 -7.972680102985053 6.240435054375637 5.114680460939617 0.0 0.0 0.0 10.67475352214055 -2.5028913407583473 20.073714194974627 4.8422396451189655 6.160250496235187 -54.2664961755287 17.142123373065782 -1.4718777714538325 -13.51595253415476 0.0 0.0 0.0 0.927888508286171 -0.08966400423718753 6.997344470706211 -31.831530854323557 30.584777564224336 25.645400806145737 -48.6616556831473 -4.783452397822756 22.641030745487082 0.0 0.0 0.0
-901.3974609999998 161.36790499999984 1416.0607910000003 9.99485280990138 -20.45628682184609 -6.292341458925889 1.0076342676268037 4.315267862564329 0.2247655197644716 -7.885719229152021 6.250776585914273 5.057424759821615 0.0 0.0 0.0 10.63252417161552 -2.474370063159329 19.926204117462643 4.820778621918621 6.137826610794806 -54.29147863011932 17.13460783990951 -1.4712262556532887 -13.515951515114546 0.0 0.0 0.0 0.9000954793291612 -0.08582612705138258 6.834632657161833 -31.84742813703143 30.61345529777905 25.669056546528967 -48.634652610566654 -4.784342493395111 22.633460802743926 0.0 0.0 0.0
-901.3521119999998 161.39198299999984 1416.0976560000001 9.983449444192354 -20.53436767288284 -6.409243774556154 1.0238837303290218 4.444789953962501 0.23542046554430426 -7.913514185039035 6.169845650444661 5.079765349020528 0.0 0.0 0.0 10.712657984415396 -2.5303075912492003 20.216704470205702 4.695358640468285 6.029606190057914 -54.6473190080532 17.160583426392975 -1.492065243289247 -13.393198967025883 0.0 0.0 0.0 0.930814272630628 -0.08915375231281095 6.931318128318077 -31.895116102176747 30.62705231400062 25.62103618290337 -48.62829819650122 -4.785693093439162 22.628598442601454 0.0 0.0 0.0
-901.2705079999997 161.36357099999984 1416.2883300000003 9.960174385093815 -20.488474760690114 -6.414231565094546 1.0359230816419736 4.416451791431434 0.2301347910661144 -7.878210281137155 6.09883124257107 5.060408251877845 0.0 0.0 0.0 10.647363419956667 -2.5212118104849237 20.206435693758127 4.7649880235116004 6.113131569026196 -54.65691210465089 17.116199439437096 -1.4958412655476918 -13.342393102597875 0.0 0.0 0.0 1.0133294481076822 -0.09572753229992764 6.968247621037119 -32.000560719650295 30.69161123752999 25.571641421747078 -48.61700247597455 -4.797771673753803 22.59382689775491 0.0 0.0 0.0
-901.2498779999997 161.42149399999983 1416.3201900000001 9.884628775757257 -20.528921934900733 -6.442278551472834 1.102960164335468 4.485056158483929 0.22477779265392228 -7.842040859871276 6.030145693654786 5.040337515524672 0.0 0.0 0.0 10.60620961296553 -2.520512241952438 20.231196362624207 4.835668022174374 6.198143214149196 -54.668393016407755 17.075889217215146 -1.5011806716159186 -13.283348588980875 0.0 0.0 0.0 1.0271891506367075 -0.09698793137826557 6.987141020732717 -32.02493155355684 30.712228818089123 25.56957870128656 -48.6105990148244 -4.804015550385591 22.57573530525073 0.0 0.0 0.0
-901.1817019999997 161.43289199999984 1416.4887700000002 9.822229137677535 -20.438386539802842 -6.234255844222045 1.1204778018644561 4.373219723770218 0.20951110064042683 -7.702438624388933 5.9611850050138795 4.952655870874669 0.0 0.0 0.0 10.51005354591232 -2.4753801943970926 20.017697682592253 4.918729597394934 6.306715655311909 -54.7563585366576 17.021064736628105 -1.5325429110587383 -13.04218310597971 0.0 0.0 0.0 1.0487705269229477 -0.09703872162676365 6.857606950754764 -32.08965103208181 30.743475298382894 25.525640267309683 -48.58340936747056 -4.807918301335119 22.559934309337937 0.0 0.0 0.0
-901.1437379999998 161.49214199999983 1416.5565190000002 9.839903775136145 -20.46479347230851 -6.356001064890602 1.1035388382011482 4.45622498789748 0.22158845659170828 -7.662585445483 5.853264089284554 4.93207174890566 0.0 0.0 0.0 10.474447178731262 -2.485277806492423 20.104665320142704 4.962825441213632 6.356175639260374 -54.73195808109403 17.022248570012774 -1.5340900508933109 -13.032603524841495 0.0 0.0 0.0 1.121754387358666 -0.10377996392865911 6.964361160395502 -32.18706752183048 30.784302352155322 25.44952440771857 -48.59218370740816 -4.814432035204579 22.544039615203438 0.0 0.0 0.0
-901.0861209999998 161.50929299999984 1416.7620850000003 9.840703173256244 -20.390855433760663 -6.13691001898187 1.0808946769290708 4.3343461226537725 0.2128731130664764 -7.5189108113797545 5.818768650954924 4.839828458625675 0.0 0.0 0.0 10.466046616386466 -2.454665744686942 19.918806470757623 4.873625010691701 6.247147194182822 -54.703620291646615 17.047019008291443 -1.5297241907139558 -13.07659932497214 0.0 0.0 0.0 1.0304377105002347 -0.09450301843790539 6.758329273040822 -32.128469168437796 30.78483502409268 25.536313684595413 -48.55057238346763 -4.817518143976587 22.527608777560015 0.0 0.0 0.0
-901.0427249999998 161.57330299999984 1416.7838130000002 9.832734131511188 -20.40060899800875 -6.33186207474975 1.1032994154062425 4.41596521940763 0.2173333226147347 -7.507217569348197 5.688315087034689 4.838663998419316 0.0 0.0 0.0 10.546238407188861 -2.507095485587533 20.19018375163335 4.792296724380175 6.1584190152110985 -54.77129584823961 17.053214589282064 -1.5101257023899997 -13.210535371136272 0.0 0.0 0.0 1.2736467560704068 -0.11508992805688881 6.961863680575716 -32.48877443372142 30.925175979794695 25.238670969173306 -48.585102193303406 -4.8295244139272775 22.501891762702112 0.0 0.0 0.0
-901.1569209999998 161.51257299999983 1416.6109620000002 10.540529334741061 -21.24593261906569 -6.281543528180798 0.46660400261108265 5.288530472496858 0.4263894960280406 -7.199273740190324 5.591598401707012 4.641707376590937 0.0 0.0 0.0 10.440266403362227 -2.4138596343185355 19.680654899555783 4.828954124503743 6.18243433858627 -54.600214507771575 17.142924064832517 -1.507565643695272 -13.280488253769953 0.0 0.0 0.0 1.1863896328341772 -0.10314176286148188 6.5530837317731345 -32.498985869339045 30.90262670117912 25.18710601066575 -48.58488527979762 -4.842822123833527 22.465925675846854 0.0 0.0 0.0
-901.2142329999998 161.67379799999983 1416.7822270000001 10.496196774861543 -20.987924091639517 -5.76744595392924 0.418424605792408 4.952732432309693 0.4011216543645764 -6.905551476074518 5.503393193140273 4.453422368648271 0.0 0.0 0.0 10.412126612020552 -2.3342316260641947 19.199005864944596 4.76882550958606 6.101991115203189 -54.517369887614116 17.16610837373535 -1.5051818762963485 -13.30981630714748 0.0 0.0 0.0 1.154111694988814 -0.09640472967524576 6.21135898870493 -32.53749873588426 30.909879873381453 25.142899833483533 -48.57584262222635 -4.8089657603303975 22.55563753781522 0.0 0.0 0.0
-900.8912349999998 161.57298299999982 1416.9571530000003 9.853436487465093 -20.801544252140204 -6.663807949264343 1.0333958966144483 4.96182285589603 0.2886102779744241 -7.148945859362585 5.327193146134166 4.621355220628739 0.0 0.0 0.0 10.897778783071038 -2.5446421355663253 20.17534705177802 4.679023727628294 5.992143238540122 -54.483304897234085 16.984490550170744 -1.4869636204040957 -13.324072564149109 0.0 0.0 0.0 1.1032729393663083 -0.10490257317541829 7.163554866909768 -32.25515871240052 30.79468895001617 25.366810226531346 -48.61636567764326 -4.823355455360028 22.52464409386287 0.0 0.0 0.0
-901.1879269999997 161.84887699999982 1417.0175780000002 10.624664643414906 -20.66640162565811 -6.041720755567471 0.2719310672942726 4.757883222223279 0.4086666027023951 -6.77562724460067 5.178952900978586 4.383128121048267 0.0 0.0 0.0 10.449694351219312 -2.3912768573154977 19.53247782408443 4.871158882685278 6.232009165919588 -54.59710769787894 17.064040064401933 -1.5054607288304487 -13.247940651659203 0.0 0.0 0.0 1.0057444170381709 -0.08886444609921172 6.430287066227741 -32.23644901008513 30.828212979632948 25.448933881097126 -48.74986432194004 -4.896167951462994 22.354701163226828 0.0 0.0 0.0
-900.8311159999997 161.77018699999982 1417.1503910000001 9.712838749617337 -20.525429977842823 -6.831694874718291 1.200235717839326 4.8823211432891345 0.2492372492271492 -7.072760399024113 4.819903245259649 4.5952404241016085 0.0 0.0 0.0 10.522600929246801 -2.538995519190785 20.406077463183152 4.95244869595429 6.296998074426165 -54.32819269992197 17.010726837507605 -1.4807161458939426 -13.381149766181478 0.0 0.0 0.0 1.2065487084197992 -0.11591492616803889 7.394930361597411 -32.35204182259783 30.8899624236786 25.38066274863403 -48.83979256165754 -4.939387307823984 22.256565619237 0.0 0.0 0.0
-900.8809809999998 161.91693099999983 1417.4462890000002 9.757854203102434 -20.292584430207448 -6.562621010239088 1.1141331611551288 4.5764647028518946 0.2324465549254865 -6.874742102336552 4.763875632559542 4.467354580635922 0.0 0.0 0.0 10.474441693431531 -2.497779480625227 20.18294176997549 4.9609300719345795 6.308947298585994 -54.345146961393816 16.984636907207967 -1.4816287376663875 -13.35975813611651 0.0 0.0 0.0 1.139658332548358 -0.107720932860312 7.166434241709509 -32.312754130912786 30.904891169541237 25.462386815575563 -48.79732287779987 -4.93948350524498 22.247772465471655 0.0 0.0 0.0
